<?xml version="1.0" standalone="no"?>
<!DOCTYPE svg PUBLIC "-//W3C//DTD SVG 20010904//EN"
 "http://www.w3.org/TR/2001/REC-SVG-20010904/DTD/svg10.dtd">
<svg version="1.0" xmlns="http://www.w3.org/2000/svg"
 width="300.000000pt" height="300.000000pt" viewBox="0 0 300.000000 300.000000"
 preserveAspectRatio="xMidYMid meet">
<metadata>
Created by potrace 1.11, written by Peter Selinger 2001-2013
</metadata>
<g transform="translate(0.000000,300.000000) scale(0.100000,-0.100000)"
fill="#000000" stroke="none">
<path d="M1390 2371 c-45 -24 -130 -99 -130 -115 0 -20 92 -104 132 -121 46
-19 158 -20 201 -1 40 17 71 51 61 67 -4 8 -3 10 4 5 12 -7 62 31 62 49 0 22
-60 82 -109 109 -47 25 -53 26 -80 13 -24 -12 -32 -12 -52 -1 -32 18 -47 17
-89 -5z m189 -95 c19 -7 31 -15 25 -18 -16 -11 -148 -17 -189 -9 l-40 7 30 17
c36 19 125 21 174 3z"/>
<path d="M978 1613 c-40 -38 -87 -79 -104 -91 -47 -33 -65 -79 -60 -154 7
-104 48 -274 99 -413 18 -49 122 -251 168 -325 95 -155 232 -325 325 -404 43
-37 79 -64 82 -62 2 3 -16 36 -41 74 -108 164 -226 403 -293 595 -89 252 -155
707 -104 707 6 0 10 -4 10 -10 0 -7 62 -53 87 -65 2 -1 5 -44 7 -96 2 -52 9
-107 15 -123 11 -26 14 -28 51 -22 52 8 157 53 200 86 45 34 104 30 164 -10
51 -34 166 -72 203 -68 24 3 30 10 40 48 6 25 12 75 12 112 1 64 2 68 31 83
16 8 45 29 64 45 l34 30 4 -24 c7 -37 -1 -203 -13 -276 -38 -227 -86 -404
-154 -565 -24 -56 -141 -290 -175 -350 -16 -27 -32 -57 -36 -65 -4 -8 -21 -34
-37 -58 -16 -24 -27 -45 -25 -48 7 -7 131 100 169 147 101 121 134 167 215
294 156 246 272 575 275 779 1 86 -9 108 -68 153 -20 15 -62 54 -93 86 -36 36
-65 57 -80 57 -17 0 -21 -4 -17 -20 7 -28 -31 -80 -77 -106 -21 -12 -66 -27
-100 -34 -33 -6 -91 -24 -127 -39 -43 -18 -77 -26 -97 -23 -17 2 -44 0 -60 -6
-22 -7 -32 -6 -49 8 -12 9 -65 27 -120 39 -54 13 -113 30 -132 40 -52 25 -102
80 -99 109 5 44 -20 35 -94 -35z"/>
<path d="M1481 1077 c-18 -23 -2 -49 28 -45 20 2 26 8 26 28 0 29 -34 40 -54
17z"/>
<path d="M1497 732 c-13 -3 -17 -11 -15 -30 2 -21 8 -27 28 -27 18 0 26 6 28
21 4 25 -16 42 -41 36z"/>
<path d="M1480 385 c-15 -19 3 -45 31 -45 19 0 35 33 24 50 -9 15 -41 12 -55
-5z"/>
</g>
</svg>
